# xmcd CD database file
#
# Track frame offsets:
#	182
#	15762
#	30895
#	44775
#	57837
#	73762
#	91497
#	107795
#	116280
#	133990
#	150735
#	165435
#	186440
#	203450
#	216050
#	228420
#	245397
#	259990
#	278317
#	290030
#	302220
#	310420
#	324697
#
# Disc length: 4536 seconds
#
# Revision: 2
# Processed by: cddbd v1.5.1PL0 Copyright (c) Steve Scherf et al.
# Submitted via: CDex 1.51
#
DISCID=4611b617
DTITLE=Various Artist - Top Dance - Vol. 8
DYEAR=1993
DGENRE=Jazz
TTITLE0=2 Unlimited - No Limit
TTITLE1=Fits of Gloom - To Love
TTITLE2=Ramirez - Orgasmico
TTITLE3=Supertrance - Power Of American Natives
TTITLE4=Bass Bumpers -.Runnin'
TTITLE5=Rozalla - Are You Ready To Fly
TTITLE6=2 Brothers On The 4th Floor - Can't Help Myself
TTITLE7=Scatt - Scat And Beboop
TTITLE8=Gloria Gaynor - First Be A Woman
TTITLE9=Cartouche - Shame
TTITLE10=East Side Beat - Alive And Kicking
TTITLE11=Capella - U Got To Know
TTITLE12=Captain Hollywood Project - Only With You
TTITLE13=Sugar 'N Spice - Beat My Jam
TTITLE14=Kikka - Sweet Dreams
TTITLE15=Usha - I Want You (You Want Me)
TTITLE16=PLeasure Game - Le Seigneur Des Tenebres
TTITLE17=Lamott Atkins - How You Make Me Feel
TTITLE18=Benny B. - Mais Etes Vous Fous
TTITLE19=Double Dee - Hey You
TTITLE20=Orange Juice - Move On Up And Down
TTITLE21=Double You - We All Need Love
TTITLE22=Box Of Laces - All That She Wants
EXTD=YEAR: 1993
EXTT0=
EXTT1=
EXTT2=
EXTT3=
EXTT4=
EXTT5=
EXTT6=
EXTT7=
EXTT8=
EXTT9=
EXTT10=
EXTT11=
EXTT12=
EXTT13=
EXTT14=
EXTT15=
EXTT16=
EXTT17=
EXTT18=
EXTT19=
EXTT20=
EXTT21=
EXTT22=
PLAYORDER=
